<?xml version="1.0" standalone="no"?>
<!DOCTYPE svg PUBLIC "-//W3C//DTD SVG 20010904//EN"
 "http://www.w3.org/TR/2001/REC-SVG-20010904/DTD/svg10.dtd">
<svg version="1.0" xmlns="http://www.w3.org/2000/svg"
 width="700.000000pt" height="700.000000pt" viewBox="0 0 700.000000 700.000000"
 preserveAspectRatio="xMidYMid meet">
<metadata>
Created by potrace 1.14, written by Peter Selinger 2001-2017
</metadata>
<g transform="translate(0.000000,700.000000) scale(0.100000,-0.100000)"
fill="#000000" stroke="none">
<path d="M1152 6980 c-23 -11 -101 -38 -174 -60 -468 -144 -727 -327 -871
-615 -33 -66 -71 -175 -82 -234 -3 -14 -8 -37 -12 -51 -4 -14 -8 -234 -9 -490
-3 -504 1 -555 52 -710 171 -511 590 -861 1083 -906 25 -2 47 -7 50 -12 12
-16 88 -70 146 -103 113 -65 231 -107 375 -134 74 -13 313 -14 391 -1 57 9
207 55 256 77 25 11 46 19 47 17 2 -2 8 -34 15 -73 25 -142 72 -270 144 -387
25 -43 27 -51 18 -81 -23 -69 -37 -186 -35 -283 3 -137 22 -230 71 -352 l24
-62 -29 -73 c-16 -41 -33 -87 -36 -103 -25 -114 -30 -157 -30 -254 0 -167 38
-328 109 -454 15 -26 25 -49 23 -50 -2 -2 -25 -16 -53 -31 -168 -91 -286 -246
-336 -438 -26 -103 -20 -269 14 -368 37 -110 90 -194 172 -275 124 -123 257
-183 440 -199 31 -3 48 -13 80 -47 106 -114 247 -193 384 -217 67 -11 225 -5
291 12 122 32 248 110 340 209 30 33 42 39 90 44 318 31 573 267 621 575 43
277 -85 548 -327 692 l-72 43 29 59 c127 264 138 549 33 811 l-25 64 24 63
c77 191 93 402 47 591 -19 77 -20 89 -7 104 62 71 142 284 162 432 4 25 8 46
9 48 2 1 24 -6 49 -17 52 -22 166 -59 206 -66 14 -2 49 -9 76 -14 65 -13 324
-7 395 9 180 39 325 104 456 202 36 27 65 40 94 43 90 9 128 17 215 41 417
118 761 487 883 946 l27 103 0 490 c0 533 -2 552 -61 715 -93 252 -289 450
-582 587 -100 47 -558 203 -596 203 -29 0 -81 -34 -103 -67 -16 -24 -18 -56
-20 -298 -1 -148 -2 -282 -2 -296 -1 -20 -16 -36 -68 -72 -237 -163 -406 -429
-459 -722 -14 -74 -21 -333 -11 -380 3 -11 8 -42 11 -69 20 -148 79 -343 141
-466 20 -40 34 -74 32 -77 -3 -2 -25 -10 -49 -17 -58 -18 -179 -12 -258 13
-59 18 -172 48 -210 56 -76 16 -83 22 -94 90 -4 22 -19 72 -34 110 -45 118
-259 534 -311 604 -122 164 -310 301 -496 361 -38 13 -71 23 -72 24 -2 2 -97
377 -109 429 -2 9 -6 27 -9 38 -12 58 -76 109 -136 109 -69 0 -129 -62 -144
-150 -3 -19 -13 -58 -21 -86 -8 -28 -16 -60 -18 -70 -3 -11 -16 -66 -30 -124
-14 -58 -28 -115 -31 -127 -3 -13 -12 -23 -19 -23 -30 0 -206 -78 -279 -123
-93 -59 -209 -166 -276 -255 -48 -65 -229 -409 -293 -556 -16 -39 -40 -107
-52 -151 l-21 -79 -90 -24 c-49 -13 -103 -28 -120 -32 -16 -5 -56 -16 -89 -25
-75 -21 -179 -25 -239 -10 -26 7 -50 14 -52 17 -3 3 13 43 34 89 136 290 188
657 132 929 -31 153 -114 340 -197 447 -84 108 -205 223 -285 271 -36 22 -39
26 -40 70 0 26 -1 160 -2 297 -2 221 -4 254 -20 278 -40 61 -121 81 -195 47z"/>
<path d="M2702 6345 c-53 -24 -117 -90 -138 -141 -21 -49 -24 -130 -8 -184 61
-204 328 -262 467 -100 152 178 19 457 -214 449 -37 -1 -78 -11 -107 -24z"/>
<path d="M4085 6352 c-62 -25 -113 -72 -148 -137 -32 -60 -30 -174 3 -238 85
-167 310 -203 437 -70 70 74 94 176 65 279 -16 55 -85 132 -145 159 -58 27
-153 30 -212 7z"/>
</g>
</svg>
