<?xml version="1.0" encoding="iso-8859-1"?>
<!-- Generator: Adobe Illustrator 19.0.0, SVG Export Plug-In . SVG Version: 6.00 Build 0)  -->
<svg version="1.1" id="Capa_1" xmlns="http://www.w3.org/2000/svg" xmlns:xlink="http://www.w3.org/1999/xlink" x="0px" y="0px"
	 viewBox="0 0 512 512" style="enable-background:new 0 0 512 512;" xml:space="preserve">
<path style="fill:#F26B5C;" d="M421.75,10v46c-24.502,12.251-40,37.305-40,64.72c0,24.54,7.11,43.14,15.66,58.21
	c0.4,0.71,0.81,1.41,1.22,2.1c-3.62,5.95-16.88,14.97-40.25,7.23c-4.84-1.6-25.35-6.48-25.35-6.48h-0.01
	c-1.309-19.561-10.047-29.42-19.38-50c-9.42-18.84-27.29-31.72-47.69-34.97L255.75,56l-10.2,40.81
	c-20.4,3.25-38.27,16.13-47.69,34.97c-9.294,20.495-18.071,30.442-19.38,50h-0.01c0,0-20.51,4.88-25.35,6.48
	c-23.37,7.74-36.63-1.28-40.25-7.23c0.41-0.69,0.82-1.39,1.22-2.1c8.55-15.07,15.66-33.67,15.66-58.21
	c0-27.394-15.479-52.46-40-64.72V10c-12.76,7.42-80,12.66-80,76.23v48.95c0,33.96,30.96,80.82,80,80.82
	c22.93,22.93,65.26,25.45,91.13,5.9l2.24-1.69l3.62,21.71c1.92,11.54,6.83,21.94,13.84,30.46c-3.11,7.25-4.83,15.23-4.83,23.62
	c0,11.6,3.29,22.79,8.99,32.44l-0.96,0.56c-5.11,8.83-8.03,19.07-8.03,30c0,16.05,6.31,31.33,16.56,42.83l-1.06,0.42
	c-19.95,2.24-35.5,19.21-35.5,39.75c0,23.022,19.916,42.821,45.27,39.47c6.86,12.18,19.77,20.53,34.73,20.53
	c14.96,0,27.87-8.35,34.73-20.53c25.271,3.34,45.27-16.366,45.27-39.47c0-20.54-15.55-37.51-35.5-39.75l-1.06-0.42
	c10.25-11.5,16.56-26.78,16.56-42.83c0-10.93-2.92-21.17-8.03-30l-0.96-0.56c5.7-9.65,8.99-20.84,8.99-32.44
	c0-8.39-1.72-16.37-4.83-23.62c7.01-8.52,11.92-18.92,13.84-30.46l3.62-21.71l2.24,1.69c25.87,19.55,68.2,17.03,91.13-5.9
	c49.04,0,80-46.86,80-80.82V86.23C501.75,22.66,434.51,17.42,421.75,10z"/>
<path d="M306,86c11.05,0,20-8.95,20-20s-8.95-20-20-20s-20,8.95-20,20S294.95,86,306,86z"/>
<path d="M256,146c5.52,0,10-4.48,10-10s-4.48-10-10-10s-10,4.48-10,10S250.48,146,256,146z"/>
<path d="M206,86c11.05,0,20-8.95,20-20s-8.95-20-20-20s-20,8.95-20,20S194.95,86,206,86z"/>
<path d="M281.867,179.555c1.421,2.825,1.878,5.858,1.359,9l-7.53,45.14c-1.017,6.096,3.684,11.647,9.875,11.647
	c4.8,0,9.036-3.466,9.852-8.356l7.533-45.156c1.209-7.319,0.094-14.672-3.212-21.242l-5.78-11.56
	c-2.47-4.94-8.479-6.943-13.417-4.472c-4.939,2.47-6.941,8.477-4.472,13.417L281.867,179.555z"/>
<path d="M85.945,225.897c14.347,12.681,33.926,19.198,53.477,19.198c12.686,0,25.355-2.751,36.571-8.331l1.133,6.797
	c1.824,10.962,6.09,21.378,12.417,30.454C187.202,281.078,186,288.445,186,296c0,10.932,2.527,21.807,7.331,31.801
	C188.526,337.447,186,348.145,186,359c0,13.045,3.542,25.812,10.126,37.106C178.249,403.829,166,421.586,166,442
	c0,27.57,22.43,50,50,50c0.078,0,0.155,0,0.232-0.001C225.626,504.477,240.334,512,256,512c15.666,0,30.374-7.523,39.768-20.001
	c0.077,0,0.154,0.001,0.232,0.001c27.57,0,50-22.43,50-50c0-20.414-12.249-38.171-30.125-45.894
	C322.458,384.815,326,372.047,326,359c0-10.855-2.526-21.553-7.331-31.2c4.805-9.998,7.331-20.87,7.331-31.8
	c0-7.555-1.202-14.922-3.543-21.985c6.327-9.076,10.594-19.491,12.417-30.45l1.134-6.801c28.517,14.187,66.384,10.047,90.046-10.867
	C479.414,223.409,512,172.175,512,135.18V86.23c0-58.821-50.411-74.041-74.638-81.354c-4.175-1.26-8.905-2.688-10.335-3.52
	c-3.094-1.799-6.912-1.808-10.014-0.023S412,6.422,412,10v40.089c-24.323,14.582-40,41.142-40,70.631
	c0,20.881,4.582,39.545,14.323,58.268c-4.379,2.199-12.334,3.824-24.556-0.223c-3.369-1.114-12.776-3.464-19.39-5.078
	c-2.814-16.755-9.47-24.878-19.544-46.38c-9.739-19.478-27.548-33.697-48.454-39.01L265.7,53.575C264.589,49.123,260.589,46,256,46
	s-8.589,3.123-9.701,7.575l-8.679,34.722c-20.906,5.313-38.715,19.532-48.454,39.01c-10.116,21.592-16.73,29.619-19.544,46.38
	c-6.614,1.614-16.023,3.965-19.396,5.08c-12.215,4.046-20.171,2.42-24.55,0.22C135.422,160.248,140,141.592,140,120.72
	c0-28.674-14.986-55.635-40-70.631V10c0-3.578-1.912-6.884-5.014-8.668s-6.92-1.776-10.014,0.023c-1.43,0.832-6.16,2.26-10.335,3.52
	C50.411,12.19,0,27.409,0,86.23v48.95C0,172.175,32.586,223.409,85.945,225.897z M306,359c0,12.991-5.111,26.177-14.016,36.166
	C282.282,406.022,269.503,412,256,412s-26.282-5.979-35.976-16.824C211.111,385.177,206,371.991,206,359
	c0-3.789,0.455-7.544,1.294-11.202C220.331,361.154,237.864,369,256,369c18.137,0,35.672-7.847,48.707-21.201
	C305.545,351.457,306,355.211,306,359z M305.772,291.244c0.147,1.572,0.228,3.157,0.228,4.756c0,9.478-2.628,18.937-7.606,27.364
	C289.078,339.177,272.833,349,256,349s-33.078-9.823-42.399-25.646C208.628,314.937,206,305.478,206,296
	c0-1.599,0.081-3.184,0.228-4.756C218.985,300.753,234.539,306,250.83,306h10.34C277.461,306,293.015,300.753,305.772,291.244z
	 M326,442c0,17.31-15.041,32.188-33.959,29.557c-4.044-0.534-8.019,1.447-10.023,5.006C276.654,486.085,266.685,492,256,492
	c-10.685,0-20.654-5.915-26.018-15.438c-2.005-3.56-5.979-5.541-10.023-5.006l-1.058,0.145C202.517,473.998,186,460.408,186,442
	c0-14.145,9.794-26.165,23.272-29.238C222.181,425.041,238.904,432,256,432c17.092,0,33.812-6.956,46.727-19.238
	C316.206,415.835,326,427.855,326,442z M412,74.954V116c0,5.523,4.478,10,10,10s10-4.477,10-10c0-5.888,0-80.801,0-91.852
	c22.643,6.838,60,18.385,60,62.082v48.95c0,27.612-24.938,67.174-64.483,70.584C412.897,182.904,392,161.891,392,120.72
	C392,103.131,399.411,86.608,412,74.954z M396.571,196.091c4.211,6.291,9.178,13.064,12.416,17.886
	c-19.381,14.008-49.345,15.031-69.475,1.774l2.893-17.347c0.22-1.32,0.4-2.646,0.549-3.975c5.54,1.381,10.701,2.718,12.532,3.323
	C369.115,202.266,384.042,203.098,396.571,196.091z M207.055,136.252c7.873-15.746,22.945-26.798,40.318-29.566
	c3.958-0.63,7.156-3.563,8.128-7.451L256,97.24l0.499,1.995c0.972,3.888,4.17,6.82,8.128,7.451
	c17.373,2.768,32.445,13.821,40.318,29.566c9.919,21.622,17.225,29.414,18.348,46.212c0.743,10.818-8.147,57.815-8.147,57.815
	c-1.573,9.455-5.618,18.358-11.698,25.749C293.006,278.72,277.597,286,261.17,286h-10.34c-16.427,0-31.836-7.28-42.277-19.974
	c-6.08-7.39-10.125-16.293-11.698-25.751c-8.205-49.205-8.716-49.536-8.147-57.812c0-0.006,0.001-0.012,0.001-0.017
	C189.829,165.68,197.136,157.873,207.055,136.252z M156.508,197.754c1.835-0.606,6.998-1.944,12.539-3.325
	c0.399,3.572,0.611,4.137,3.441,21.322c-20.125,13.258-50.092,12.236-69.475-1.775c3.201-4.768,8.2-11.588,12.415-17.885
	C127.976,203.111,142.918,202.256,156.508,197.754z M20,86.23c0-43.697,37.357-55.244,60-62.082c0,11.718,0,77.7,0,91.852
	c0,5.523,4.478,10,10,10s10-4.477,10-10V74.955c12.569,11.636,20,28.146,20,45.766c0,40.442-19.821,60.501-35.517,85.044
	C44.939,202.354,20,162.792,20,135.18V86.23z"/>
<g>
</g>
<g>
</g>
<g>
</g>
<g>
</g>
<g>
</g>
<g>
</g>
<g>
</g>
<g>
</g>
<g>
</g>
<g>
</g>
<g>
</g>
<g>
</g>
<g>
</g>
<g>
</g>
<g>
</g>
</svg>
